<?xml version="1.0" encoding="iso-8859-1"?>
<!-- Generator: Adobe Illustrator 19.0.0, SVG Export Plug-In . SVG Version: 6.00 Build 0)  -->
<svg xmlns="http://www.w3.org/2000/svg" xmlns:xlink="http://www.w3.org/1999/xlink" version="1.1" id="Layer_1" x="0px" y="0px" viewBox="0 0 512 512" style="enable-background:new 0 0 512 512;" xml:space="preserve">
<path style="fill:#FFF082;" d="M34.834,43.68h371.559c14.658,0,26.54,11.882,26.54,26.54v300.786c0,14.658-11.882,26.54-26.54,26.54  H34.834c-14.658,0-26.54-11.882-26.54-26.54V70.22C8.294,55.563,20.176,43.68,34.834,43.68z"/>
<path style="fill:#FFDC64;" d="M34.834,397.546h371.559c14.658,0,26.54-11.882,26.54-26.54V335.62  c0,14.658-11.882,26.54-26.54,26.54H34.834c-14.658,0-26.54-11.882-26.54-26.54v35.387C8.294,385.664,20.176,397.546,34.834,397.546  z"/>
<path style="fill:#7DF5A5;" d="M70.22,79.067H441.78c14.658,0,26.54,11.882,26.54,26.54v300.786c0,14.658-11.882,26.54-26.54,26.54  H70.22c-14.658,0-26.54-11.882-26.54-26.54V105.607C43.68,90.949,55.563,79.067,70.22,79.067z"/>
<path style="fill:#64DCA0;" d="M70.22,432.933H441.78c14.658,0,26.54-11.882,26.54-26.54v-35.387c0,14.658-11.882,26.54-26.54,26.54  H70.22c-14.658,0-26.54-11.882-26.54-26.54v35.387C43.68,421.051,55.563,432.933,70.22,432.933z"/>
<path style="fill:#00C3FF;" d="M105.607,114.454h371.559c14.658,0,26.54,11.882,26.54,26.54V441.78  c0,14.658-11.882,26.54-26.54,26.54H105.607c-14.658,0-26.54-11.882-26.54-26.54V140.994  C79.067,126.336,90.949,114.454,105.607,114.454z"/>
<g>
	<path style="fill:#7DD7FF;" d="M437.356,167.533h26.54c7.328,0,13.27-5.942,13.27-13.27l0,0c0-7.328-5.942-13.27-13.27-13.27   h-26.54c-7.328,0-13.27,5.942-13.27,13.27l0,0C424.086,161.592,430.028,167.533,437.356,167.533z"/>
	<path style="fill:#7DD7FF;" d="M269.27,167.533h115.007c7.328,0,13.27-5.942,13.27-13.27l0,0c0-7.328-5.942-13.27-13.27-13.27   H269.27c-7.328,0-13.27,5.942-13.27,13.27l0,0C256,161.592,261.942,167.533,269.27,167.533z"/>
</g>
<path style="fill:#00AAF0;" d="M105.607,468.32h371.559c14.658,0,26.54-11.882,26.54-26.54v-35.387  c0,14.658-11.882,26.54-26.54,26.54H105.607c-14.658,0-26.54-11.882-26.54-26.54v35.387  C79.067,456.438,90.949,468.32,105.607,468.32z"/>
<path d="M477.166,106.16H105.607c-19.207,0-34.834,15.627-34.834,34.834V441.78c0,19.207,15.627,34.834,34.834,34.834h371.559  c19.207,0,34.834-15.627,34.834-34.834V140.994C512,121.786,496.373,106.16,477.166,106.16z M495.413,441.78  c0,10.061-8.185,18.246-18.246,18.246H105.607c-10.061,0-18.246-8.185-18.246-18.246V140.994c0-10.061,8.185-18.246,18.246-18.246  h371.559c10.061,0,18.246,8.185,18.246,18.246V441.78z"/>
<path d="M458.92,79.067c0-4.58-3.713-8.294-8.294-8.294H70.22c-19.207,0-34.834,15.627-34.834,34.834V415.24  c0,4.58,3.713,8.294,8.294,8.294s8.294-3.713,8.294-8.294V105.607c0-10.061,8.185-18.246,18.246-18.246h380.406  C455.207,87.361,458.92,83.647,458.92,79.067z"/>
<path d="M423.533,43.68c0-4.58-3.713-8.294-8.294-8.294H34.834C15.627,35.387,0,51.013,0,70.22v309.633  c0,4.58,3.713,8.294,8.294,8.294s8.294-3.713,8.294-8.294V70.22c0-10.061,8.185-18.246,18.246-18.246H415.24  C419.82,51.974,423.533,48.261,423.533,43.68z"/>
<path d="M435.591,283.47c-19.97-6.241-23.485-10.393-23.485-16.81c0-6.26,11.093-10.938,21.011-10.938  c10.822,0,19.87,4.783,21.531,9.249c1.597,4.294,6.372,6.48,10.665,4.883c4.293-1.597,6.479-6.371,4.883-10.665  c-4.391-11.809-19.637-20.056-37.077-20.056c-21.083,0-37.598,12.091-37.598,27.525c0,21.665,21.137,28.272,35.123,32.643  c19.97,6.24,23.485,10.393,23.485,16.81c0,6.26-11.093,10.938-21.011,10.938c-10.822,0-19.87-4.783-21.531-9.249  c-1.597-4.294-6.371-6.48-10.665-4.883c-4.293,1.597-6.479,6.371-4.883,10.665c4.391,11.809,19.637,20.056,37.077,20.056  c21.083,0,37.598-12.091,37.598-27.525C470.716,294.446,449.578,287.841,435.591,283.47z"/>
<path d="M181.287,249.815c-2.13-6.388-8.085-10.68-14.818-10.68h-4.092c-6.733,0-12.689,4.292-14.818,10.68l-27.636,82.906  c-1.449,4.346,0.9,9.042,5.246,10.491c4.346,1.45,9.041-0.9,10.491-5.245l7.878-23.635h41.771l7.878,23.634  c1.159,3.476,4.395,5.673,7.867,5.673c0.869,0,1.754-0.138,2.624-0.428c4.346-1.449,6.694-6.145,5.246-10.491L181.287,249.815z   M149.066,297.745l14.008-42.023h2.696l14.008,42.023H149.066z"/>
<path d="M258.08,239.135h-29.305c-4.58,0-8.294,3.713-8.294,8.294v87.916c0,4.58,3.713,8.294,8.294,8.294s8.294-3.713,8.294-8.294  v-21.012h21.011c20.732,0,37.598-16.866,37.598-37.598S278.812,239.135,258.08,239.135z M258.08,297.745h-21.011v-42.023h21.011  c11.586,0,21.011,9.426,21.011,21.012C279.091,288.32,269.666,297.745,258.08,297.745z"/>
<path d="M345.996,239.135H316.69c-4.58,0-8.294,3.713-8.294,8.294v87.916c0,4.58,3.713,8.294,8.294,8.294s8.294-3.713,8.294-8.294  v-21.012h21.012c20.732,0,37.598-16.866,37.598-37.598S366.728,239.135,345.996,239.135z M345.996,297.745h-21.012v-42.023h21.012  c11.586,0,21.011,9.426,21.011,21.012C367.007,288.32,357.582,297.745,345.996,297.745z"/>
<g>
</g>
<g>
</g>
<g>
</g>
<g>
</g>
<g>
</g>
<g>
</g>
<g>
</g>
<g>
</g>
<g>
</g>
<g>
</g>
<g>
</g>
<g>
</g>
<g>
</g>
<g>
</g>
<g>
</g>
</svg>
